<svg xmlns="http://www.w3.org/2000/svg" xmlns:xlink="http://www.w3.org/1999/xlink" width="500" zoomAndPan="magnify" viewBox="0 0 375 374.999991" height="500" preserveAspectRatio="xMidYMid meet" version="1.0"><defs><g/><clipPath id="e2213f7691"><path d="M 14.625 14.625 L 360.375 14.625 L 360.375 360.375 L 14.625 360.375 Z M 14.625 14.625 " clip-rule="nonzero"/></clipPath><clipPath id="0a0f391e71"><path d="M 187.5 14.625 C 92.023438 14.625 14.625 92.023438 14.625 187.5 C 14.625 282.976562 92.023438 360.375 187.5 360.375 C 282.976562 360.375 360.375 282.976562 360.375 187.5 C 360.375 92.023438 282.976562 14.625 187.5 14.625 Z M 187.5 14.625 " clip-rule="nonzero"/></clipPath><clipPath id="a31fbdc1ae"><path d="M 10.53125 10.53125 L 364.53125 10.53125 L 364.53125 364.53125 L 10.53125 364.53125 Z M 10.53125 10.53125 " clip-rule="nonzero"/></clipPath><clipPath id="0aa3557561"><path d="M 127 37.5 L 288 37.5 L 288 337 L 127 337 Z M 127 37.5 " clip-rule="nonzero"/></clipPath><clipPath id="6001681612"><path d="M 279.90625 225.363281 L 279.980469 225.363281 L 279.980469 225.421875 L 279.90625 225.421875 Z M 279.90625 225.363281 " clip-rule="nonzero"/></clipPath><clipPath id="53a2548a69"><path d="M 279.976562 225.398438 C 279.835938 225.460938 279.960938 225.367188 279.960938 225.367188 " clip-rule="nonzero"/></clipPath><clipPath id="b50fd65a0b"><path d="M 279.894531 225.285156 L 279.980469 225.285156 L 279.980469 225.34375 L 279.894531 225.34375 Z M 279.894531 225.285156 " clip-rule="nonzero"/></clipPath><clipPath id="768b045776"><path d="M 279.976562 225.320312 C 279.820312 225.382812 279.945312 225.289062 279.945312 225.289062 " clip-rule="nonzero"/></clipPath><clipPath id="7124d26482"><path d="M 279.011719 227.679688 L 279.085938 227.679688 L 279.085938 227.738281 L 279.011719 227.738281 Z M 279.011719 227.679688 " clip-rule="nonzero"/></clipPath><clipPath id="d083bb4f5c"><path d="M 279.082031 227.714844 C 278.941406 227.777344 279.066406 227.683594 279.066406 227.683594 " clip-rule="nonzero"/></clipPath><clipPath id="9851d64d29"><path d="M 279.003906 227.601562 L 279.085938 227.601562 L 279.085938 227.660156 L 279.003906 227.660156 Z M 279.003906 227.601562 " clip-rule="nonzero"/></clipPath><clipPath id="d2f25b13bc"><path d="M 279.082031 227.636719 C 278.925781 227.699219 279.050781 227.605469 279.050781 227.605469 " clip-rule="nonzero"/></clipPath><clipPath id="7484317d17"><path d="M 267.882812 231.582031 L 270.660156 231.582031 L 270.660156 234.597656 L 267.882812 234.597656 Z M 267.882812 231.582031 " clip-rule="nonzero"/></clipPath><clipPath id="890b212758"><path d="M 270.523438 232.351562 C 268.050781 234.976562 267.898438 234.675781 267.898438 234.449219 C 267.824219 233.925781 268.949219 232.425781 269.550781 231.976562 C 269.851562 231.75 270.449219 231.523438 270.601562 231.601562 C 270.75 231.75 270.523438 232.351562 270.523438 232.351562 " clip-rule="nonzero"/></clipPath><clipPath id="e6f9bc2c2c"><path d="M 267.792969 231.265625 L 271.042969 231.265625 L 271.042969 236.199219 L 267.792969 236.199219 Z M 267.792969 231.265625 " clip-rule="nonzero"/></clipPath><clipPath id="611f87dbb9"><path d="M 267.824219 235.875 C 268.574219 233.398438 270.148438 232.050781 270.375 232.199219 C 270.601562 232.351562 269.398438 234.976562 269.398438 234.976562 C 269.398438 234.976562 270.148438 231.449219 270.523438 231.300781 C 270.675781 231.300781 270.976562 231.675781 270.976562 231.75 C 270.976562 231.75 270.300781 231.523438 270.300781 231.449219 C 270.300781 231.449219 270.824219 231.523438 270.976562 231.675781 C 271.199219 232.125 270.523438 234.226562 270.074219 234.898438 C 269.851562 235.273438 269.476562 235.574219 269.25 235.574219 C 268.949219 235.5 268.648438 235.050781 268.648438 234.675781 C 268.574219 234 269.699219 231.675781 270.074219 231.601562 C 270.300781 231.601562 270.675781 231.976562 270.675781 232.273438 C 270.675781 232.800781 268.949219 233.925781 268.648438 234.75 C 268.425781 235.199219 268.726562 236.023438 268.5 236.175781 C 268.351562 236.25 267.824219 235.875 267.824219 235.875 " clip-rule="nonzero"/></clipPath><clipPath id="c146e6ffa8"><path d="M 267.769531 231.820312 L 269.863281 231.820312 L 269.863281 236.109375 L 267.769531 236.109375 Z M 267.769531 231.820312 " clip-rule="nonzero"/></clipPath><clipPath id="5f63071e89"><path d="M 267.898438 236.101562 C 267.898438 233.476562 269.398438 231.75 269.625 231.824219 C 269.851562 231.976562 269.023438 235.5 268.574219 235.726562 C 268.351562 235.800781 267.898438 235.351562 267.898438 235.425781 C 267.898438 235.425781 268.5 235.726562 268.5 235.800781 C 268.5 235.800781 267.976562 235.726562 267.824219 235.574219 C 267.675781 235.273438 267.898438 234.226562 268.199219 233.625 C 268.425781 232.949219 268.949219 231.976562 269.25 231.898438 C 269.476562 231.824219 269.773438 231.976562 269.851562 232.199219 C 270 232.800781 267.898438 236.101562 267.898438 236.101562 " clip-rule="nonzero"/></clipPath><clipPath id="6c3278930a"><path d="M 250.3125 250.78125 L 250.671875 250.78125 L 250.671875 251.0625 L 250.3125 251.0625 Z M 250.3125 250.78125 " clip-rule="nonzero"/></clipPath><clipPath id="40e65201b8"><path d="M 250.648438 250.949219 C 249.976562 251.25 250.574219 250.800781 250.574219 250.800781 " clip-rule="nonzero"/></clipPath><clipPath id="2dce1b0683"><path d="M 249.277344 250.191406 L 251.566406 250.191406 L 251.566406 251.976562 L 249.277344 251.976562 Z M 249.277344 250.191406 " clip-rule="nonzero"/></clipPath><clipPath id="e32dc3f6d6"><path d="M 251.476562 250.949219 C 249.601562 252.226562 249.375 252 249.300781 251.773438 C 249.300781 251.550781 249.898438 251.023438 250.199219 250.800781 C 250.425781 250.648438 250.875 250.5 251.023438 250.574219 C 251.175781 250.648438 251.175781 251.398438 251.101562 251.550781 C 250.949219 251.625 250.425781 251.324219 250.425781 251.25 C 250.425781 251.25 251.175781 251.175781 251.175781 251.25 C 251.25 251.324219 250.125 252.074219 249.976562 251.925781 C 249.75 251.773438 249.75 250.875 249.976562 250.648438 C 250.199219 250.351562 251.324219 250.050781 251.476562 250.273438 C 251.625 250.351562 251.476562 250.949219 251.476562 250.949219 " clip-rule="nonzero"/></clipPath></defs><g clip-path="url(#e2213f7691)"><g clip-path="url(#0a0f391e71)"><path fill="#ffffff" d="M 14.625 14.625 L 360.375 14.625 L 360.375 360.375 L 14.625 360.375 Z M 14.625 14.625 " fill-opacity="1" fill-rule="nonzero"/></g></g><g clip-path="url(#a31fbdc1ae)"><path fill="#000000" d="M 187.53125 10.53125 C 89.871094 10.53125 10.53125 89.871094 10.53125 187.53125 C 10.53125 285.1875 89.871094 364.53125 187.53125 364.53125 C 285.1875 364.53125 364.53125 285.1875 364.53125 187.53125 C 364.53125 89.871094 285.1875 10.53125 187.53125 10.53125 Z M 187.53125 18.226562 C 281.132812 18.226562 356.832031 93.925781 356.832031 187.53125 C 356.832031 281.132812 281.132812 356.832031 187.53125 356.832031 C 93.925781 356.832031 18.226562 281.132812 18.226562 187.53125 C 18.226562 93.925781 93.925781 18.226562 187.53125 18.226562 Z M 187.53125 18.226562 " fill-opacity="1" fill-rule="nonzero"/></g><g clip-path="url(#0aa3557561)"><path fill="#000000" d="M 205.488281 37.5 C 223.527344 81.507812 243.214844 107.347656 255.773438 121.648438 C 265.6875 132.941406 320.019531 183.152344 257.398438 261.628906 C 294.605469 184.792969 281.210938 139.246094 214.695312 111.152344 L 214.695312 273.800781 C 216.785156 340.789062 147.980469 344.886719 131.203125 327.066406 C 113.871094 308.664062 154.734375 247.617188 205.492188 267.664062 L 205.492188 37.5 Z M 205.488281 37.5 " fill-opacity="1" fill-rule="evenodd"/></g><path stroke-linecap="butt" transform="matrix(0.596003, -0.45528, 0.45528, 0.596003, 209.224313, 260.631223)" fill="none" stroke-linejoin="miter" d="M 0.272425 0.4205 C 43.899431 28.935992 81.193614 28.934037 112.151811 0.418773 " stroke="#000000" stroke-width="1" stroke-opacity="1" stroke-miterlimit="4"/><path stroke-linecap="butt" transform="matrix(0.637314, -0.395387, 0.395387, 0.637314, 209.250562, 260.574974)" fill="none" stroke-linejoin="miter" d="M 0.242611 0.437404 C 48.121469 27.334022 86.404721 27.333968 115.103963 0.438308 " stroke="#000000" stroke-width="1" stroke-opacity="1" stroke-miterlimit="4"/><g clip-path="url(#6001681612)"><g clip-path="url(#53a2548a69)"><path fill="#ffffff" d="M 279.222656 224.75 L 280.605469 224.75 L 280.605469 226.089844 L 279.222656 226.089844 Z M 279.222656 224.75 " fill-opacity="1" fill-rule="nonzero"/></g></g><g clip-path="url(#b50fd65a0b)"><g clip-path="url(#768b045776)"><path fill="#ffffff" d="M 279.222656 224.675781 L 280.605469 224.675781 L 280.605469 226.011719 L 279.222656 226.011719 Z M 279.222656 224.675781 " fill-opacity="1" fill-rule="nonzero"/></g></g><path stroke-linecap="butt" transform="matrix(0.495904, -0.562654, 0.562654, 0.495904, 249.968045, 253.156361)" fill="none" stroke-linejoin="miter" d="M 0.212063 0.453063 C 22.67567 10.90308 45.141405 10.90269 67.605361 0.455338 " stroke="#ffffff" stroke-width="1" stroke-opacity="1" stroke-miterlimit="4"/><path stroke-linecap="butt" transform="matrix(0.462113, -0.590721, 0.590721, 0.462113, 240.818909, 262.17473)" fill="none" stroke-linejoin="miter" d="M 3.281451 5.608614 C 40.919837 27.64432 73.977751 27.645736 102.459294 5.609651 " stroke="#ffffff" stroke-width="13" stroke-opacity="1" stroke-miterlimit="4"/><path stroke-linecap="butt" transform="matrix(0.494677, -0.563732, 0.563732, 0.494677, 256.758386, 250.543431)" fill="none" stroke-linejoin="miter" d="M 1.405903 2.943643 C 11.179616 8.135617 29.075866 8.133296 55.090739 2.940116 " stroke="#ffffff" stroke-width="6" stroke-opacity="1" stroke-miterlimit="4"/><path stroke-linecap="butt" transform="matrix(0.66756, -0.341852, 0.341852, 0.66756, 224.451112, 258.928958)" fill="none" stroke-linejoin="miter" d="M 0.151116 0.476382 C 19.731007 6.828329 39.309135 6.830462 58.89025 0.473512 " stroke="#000000" stroke-width="1" stroke-opacity="1" stroke-miterlimit="4"/><path stroke-linecap="butt" transform="matrix(0.646267, -0.380577, 0.380577, 0.646267, 234.023881, 256.786361)" fill="none" stroke-linejoin="miter" d="M 0.154294 0.475834 C 23.384339 7.996485 43.154693 7.997572 59.47962 0.475405 " stroke="#000000" stroke-width="1" stroke-opacity="1" stroke-miterlimit="4"/><path stroke-linecap="butt" transform="matrix(0.552786, -0.50688, 0.50688, 0.552786, 239.102084, 255.23304)" fill="none" stroke-linejoin="miter" d="M 0.381115 0.924264 C 20.195651 9.108369 40.009549 9.10891 59.826328 0.922049 " stroke="#000000" stroke-width="2" stroke-opacity="1" stroke-miterlimit="4"/><path stroke-linecap="butt" transform="matrix(0.555095, -0.50435, 0.50435, 0.555095, 249.049851, 250.421146)" fill="none" stroke-linejoin="miter" d="M 0.556804 1.92167 C 13.961242 5.81104 27.360044 5.810821 40.760569 1.92066 " stroke="#000000" stroke-width="4" stroke-opacity="1" stroke-miterlimit="4"/><g clip-path="url(#7124d26482)"><g clip-path="url(#d083bb4f5c)"><path fill="#ffffff" d="M 278.316406 227.058594 L 279.726562 227.058594 L 279.726562 228.421875 L 278.316406 228.421875 Z M 278.316406 227.058594 " fill-opacity="1" fill-rule="nonzero"/></g></g><g clip-path="url(#9851d64d29)"><g clip-path="url(#d2f25b13bc)"><path fill="#ffffff" d="M 278.316406 226.980469 L 279.726562 226.980469 L 279.726562 228.34375 L 278.316406 228.34375 Z M 278.316406 226.980469 " fill-opacity="1" fill-rule="nonzero"/></g></g><path stroke-linecap="butt" transform="matrix(1.220487, 0, 0, 1.220487, 56.365105, 70.429111)" fill="none" stroke-linejoin="miter" d="M 22.236047 38.746538 L 22.236047 36.646966 L 68.490644 36.646966 C 74.568521 36.646966 80.499172 36.95102 86.285797 37.559128 C 92.072423 38.138431 97.292548 39.409056 101.942972 41.361402 C 106.593396 43.316948 110.318856 46.277473 113.119352 50.242976 C 115.948654 54.179673 117.360104 59.438205 117.360104 66.015371 C 117.360104 74.365651 114.956478 81.064438 110.149226 86.111732 C 105.338774 91.133422 99.088066 93.697076 91.400304 93.802695 L 91.400304 94.436407 C 101.677325 94.436407 109.790763 96.801627 115.737416 101.532065 C 121.68087 106.233698 124.654197 112.641234 124.654197 120.754671 C 124.654197 124.320103 124.087696 128.087171 122.951495 132.049473 C 121.815293 135.989371 119.5941 139.714831 116.291115 143.229054 C 113.013734 146.743277 108.257691 149.58218 102.022986 151.748964 C 95.813886 153.915748 87.620434 155.00074 77.449031 155.00074 L 22.236047 155.00074 L 22.236047 152.897968 C 26.118335 152.897968 28.960438 152.411481 30.755957 151.432108 C 32.554675 150.455935 33.450834 148.129122 33.450834 144.458072 L 33.450834 46.872778 C 33.319611 43.409765 32.35624 41.191772 30.557521 40.212398 C 28.787608 39.236225 26.012716 38.746538 22.236047 38.746538 Z M 71.582392 95.108526 L 51.447623 95.108526 L 51.447623 144.458072 C 51.447623 146.941712 51.882901 148.804442 52.753455 150.046262 C 53.62721 151.288082 55.304307 152.107427 57.787947 152.504298 C 60.271587 152.872363 63.945838 153.057996 68.8075 153.057996 C 81.040068 153.057996 90.158483 150.443133 96.156346 145.210205 C 102.179814 139.951673 105.194748 131.69421 105.194748 120.437815 C 105.194748 113.620607 103.700083 108.374877 100.713954 104.700626 C 97.753429 101.000771 93.723915 98.478724 88.625412 97.131285 C 83.552513 95.783846 77.871506 95.108526 71.582392 95.108526 Z M 51.447623 46.872778 L 51.447623 93.127375 L 68.647471 93.127375 C 74.382888 93.127375 79.574208 92.426451 84.224632 91.027803 C 88.903861 89.625955 92.616519 86.985487 95.362606 83.099998 C 98.137497 79.188905 99.526544 73.495096 99.526544 66.015371 C 99.526544 57.165803 97.254141 50.412606 92.709336 45.762182 C 88.16133 41.086153 81.174491 38.746538 71.739219 38.746538 C 66.218241 38.746538 61.990292 38.919369 59.055372 39.26183 C 56.149257 39.578686 54.155303 40.305215 53.070311 41.441416 C 51.988519 42.577617 51.447623 44.389138 51.447623 46.872778 Z M 51.447623 46.872778 " stroke="#ffffff" stroke-width="7.914689" stroke-opacity="1" stroke-miterlimit="4"/><g fill="#000000" fill-opacity="1"><g transform="translate(77.551993, 259.604565)"><g><path d="M 5.9375 -141.875 L 5.9375 -144.4375 L 62.421875 -144.4375 C 69.816406 -144.4375 77.046875 -144.070312 84.109375 -143.34375 C 91.179688 -142.625 97.554688 -141.070312 103.234375 -138.6875 C 108.910156 -136.3125 113.460938 -132.710938 116.890625 -127.890625 C 120.328125 -123.078125 122.046875 -116.640625 122.046875 -108.578125 C 122.046875 -98.410156 119.109375 -90.253906 113.234375 -84.109375 C 107.359375 -77.960938 99.734375 -74.828125 90.359375 -74.703125 L 90.359375 -73.90625 C 102.898438 -73.90625 112.800781 -71.03125 120.0625 -65.28125 C 127.332031 -59.539062 130.96875 -51.71875 130.96875 -41.8125 C 130.96875 -37.445312 130.273438 -32.851562 128.890625 -28.03125 C 127.503906 -23.21875 124.796875 -18.660156 120.765625 -14.359375 C 116.734375 -10.066406 110.921875 -6.597656 103.328125 -3.953125 C 95.734375 -1.316406 85.726562 0 73.3125 0 L 5.9375 0 L 5.9375 -2.578125 C 10.695312 -2.578125 14.164062 -3.171875 16.34375 -4.359375 C 18.519531 -5.546875 19.609375 -8.382812 19.609375 -12.875 L 19.609375 -131.96875 C 19.484375 -136.1875 18.328125 -138.890625 16.140625 -140.078125 C 13.960938 -141.273438 10.5625 -141.875 5.9375 -141.875 Z M 66.171875 -73.109375 L 41.609375 -73.109375 L 41.609375 -12.875 C 41.609375 -9.84375 42.132812 -7.566406 43.1875 -6.046875 C 44.25 -4.523438 46.296875 -3.53125 49.328125 -3.0625 C 52.367188 -2.601562 56.863281 -2.375 62.8125 -2.375 C 77.738281 -2.375 88.863281 -5.578125 96.1875 -11.984375 C 103.519531 -18.390625 107.1875 -28.460938 107.1875 -42.203125 C 107.1875 -50.523438 105.367188 -56.929688 101.734375 -61.421875 C 98.109375 -65.910156 93.191406 -68.976562 86.984375 -70.625 C 80.773438 -72.28125 73.835938 -73.109375 66.171875 -73.109375 Z M 41.609375 -131.96875 L 41.609375 -75.484375 L 62.609375 -75.484375 C 69.609375 -75.484375 75.945312 -76.34375 81.625 -78.0625 C 87.3125 -79.78125 91.835938 -83.015625 95.203125 -87.765625 C 98.578125 -92.523438 100.265625 -99.460938 100.265625 -108.578125 C 100.265625 -119.410156 97.488281 -127.664062 91.9375 -133.34375 C 86.382812 -139.03125 77.863281 -141.875 66.375 -141.875 C 59.632812 -141.875 54.484375 -141.675781 50.921875 -141.28125 C 47.359375 -140.882812 44.914062 -139.988281 43.59375 -138.59375 C 42.269531 -137.207031 41.609375 -135 41.609375 -131.96875 Z M 41.609375 -131.96875 "/></g></g></g><g fill="#000000" fill-opacity="1"><g transform="translate(207.14077, 351.870303)"><g><path d="M 9.578125 -5.40625 C 9.660156 -4.84375 9.617188 -4.296875 9.453125 -3.765625 C 9.285156 -3.234375 9.019531 -2.773438 8.65625 -2.390625 C 7.945312 -1.628906 6.910156 -1.140625 5.546875 -0.921875 L 1.46875 -0.234375 L -0.734375 -13.578125 L 2.890625 -14.1875 C 4.828125 -14.5 6.191406 -14.109375 6.984375 -13.015625 C 7.265625 -12.617188 7.441406 -12.191406 7.515625 -11.734375 C 7.585938 -11.296875 7.613281 -10.945312 7.59375 -10.6875 C 7.550781 -10.40625 7.484375 -10.140625 7.390625 -9.890625 C 7.179688 -9.328125 6.851562 -8.898438 6.40625 -8.609375 C 7.238281 -8.535156 7.9375 -8.222656 8.5 -7.671875 C 9.0625 -7.109375 9.421875 -6.351562 9.578125 -5.40625 Z M 6.171875 -11.296875 C 5.953125 -12.648438 4.929688 -13.175781 3.109375 -12.875 L 0.875 -12.5 L 1.5625 -8.328125 L 4.171875 -8.765625 C 4.878906 -8.878906 5.421875 -9.15625 5.796875 -9.59375 C 6.171875 -10.007812 6.296875 -10.578125 6.171875 -11.296875 Z M 8.15625 -5.4375 C 8.09375 -5.832031 7.96875 -6.171875 7.78125 -6.453125 C 7.5625 -6.710938 7.316406 -6.9375 7.046875 -7.125 C 6.453125 -7.488281 5.804688 -7.613281 5.109375 -7.5 L 1.796875 -6.953125 L 2.640625 -1.78125 L 5.734375 -2.296875 C 6.566406 -2.429688 7.210938 -2.78125 7.671875 -3.34375 C 8.128906 -3.945312 8.289062 -4.644531 8.15625 -5.4375 Z M 8.15625 -5.4375 "/></g></g></g><g fill="#000000" fill-opacity="1"><g transform="translate(223.991852, 348.767085)"><g><path d="M 9.203125 -2.5 L 1.4375 -0.390625 L -2.125 -13.453125 L 5.640625 -15.5625 L 5.984375 -14.296875 L -0.4375 -12.5625 L 0.828125 -7.921875 L 7.046875 -9.609375 L 7.390625 -8.34375 L 1.171875 -6.65625 L 2.4375 -2.015625 L 8.859375 -3.75 Z M 9.203125 -2.5 "/></g></g></g><g fill="#000000" fill-opacity="1"><g transform="translate(240.673406, 343.849569)"><g><path d="M -3.984375 -11.609375 L -4.453125 -12.828125 L -1.359375 -14 L -0.0625 -14.484375 L 3 -15.65625 L 3.46875 -14.4375 L 0.40625 -13.265625 L 4.734375 -1.84375 L 3.4375 -1.359375 L -0.890625 -12.78125 Z M -3.984375 -11.609375 "/></g></g></g><g fill="#000000" fill-opacity="1"><g transform="translate(254.750673, 338.258377)"><g><path d="M 2.59375 -1.28125 L 1.328125 -0.65625 L -4.703125 -12.765625 L -3.4375 -13.390625 L -0.71875 -7.9375 L 4.78125 -10.671875 L 2.0625 -16.125 L 3.296875 -16.75 L 9.328125 -4.640625 L 8.09375 -4.015625 L 5.40625 -9.421875 L -0.09375 -6.6875 Z M 2.59375 -1.28125 "/></g></g></g><g fill="#000000" fill-opacity="1"><g transform="translate(270.882235, 329.758749)"><g/></g></g><g fill="#000000" fill-opacity="1"><g transform="translate(280.809123, 323.527639)"><g><path d="M 5.5625 -12.609375 C 6.144531 -11.816406 6.535156 -10.984375 6.734375 -10.109375 C 6.953125 -9.210938 6.988281 -8.34375 6.84375 -7.5 C 6.695312 -6.644531 6.378906 -5.828125 5.890625 -5.046875 C 5.421875 -4.273438 4.800781 -3.597656 4.03125 -3.015625 L 1.1875 -0.890625 L -6.921875 -11.71875 L -4.078125 -13.84375 C -3.304688 -14.425781 -2.484375 -14.835938 -1.609375 -15.078125 C -0.710938 -15.304688 0.164062 -15.367188 1.03125 -15.265625 C 1.882812 -15.160156 2.703125 -14.890625 3.484375 -14.453125 C 4.273438 -14.003906 4.96875 -13.390625 5.5625 -12.609375 Z M 4.46875 -11.796875 C 3.550781 -13.015625 2.347656 -13.722656 0.859375 -13.921875 C -0.597656 -14.085938 -1.953125 -13.703125 -3.203125 -12.765625 L -4.953125 -11.453125 L 1.484375 -2.84375 L 3.234375 -4.15625 C 4.484375 -5.09375 5.234375 -6.285156 5.484375 -7.734375 C 5.722656 -9.203125 5.382812 -10.554688 4.46875 -11.796875 Z M 4.46875 -11.796875 "/></g></g></g><g fill="#000000" fill-opacity="1"><g transform="translate(296.054269, 311.619827)"><g><path d="M 6.96875 -6.5 L 1.078125 -1.015625 L -8.15625 -10.90625 L -2.265625 -16.390625 L -1.390625 -15.4375 L -6.25 -10.90625 L -2.953125 -7.390625 L 1.75 -11.796875 L 2.640625 -10.84375 L -2.0625 -6.4375 L 1.21875 -2.921875 L 6.078125 -7.453125 Z M 6.96875 -6.5 "/></g></g></g><g fill="#000000" fill-opacity="1"><g transform="translate(308.606486, 299.46879)"><g><path d="M 3.96875 -11.46875 C 5.070312 -10.507812 5.632812 -9.390625 5.65625 -8.109375 C 5.664062 -6.921875 5.179688 -5.757812 4.203125 -4.625 C 3.210938 -3.476562 2.128906 -2.816406 0.953125 -2.640625 C -0.316406 -2.472656 -1.503906 -2.867188 -2.609375 -3.828125 L -9.46875 -9.734375 L -8.5625 -10.78125 L -1.5625 -4.75 C -0.78125 -4.082031 0.0625 -3.851562 0.96875 -4.0625 C 1.738281 -4.238281 2.46875 -4.726562 3.15625 -5.53125 C 4.238281 -6.78125 4.546875 -7.988281 4.078125 -9.15625 C 3.910156 -9.550781 3.617188 -9.925781 3.203125 -10.28125 L -3.796875 -16.3125 L -2.890625 -17.375 Z M 3.96875 -11.46875 "/></g></g></g><g fill="#000000" fill-opacity="1"><g transform="translate(320.60794, 284.905797)"><g><path d="M -9.828125 -7.34375 L -10.890625 -8.09375 L -9 -10.796875 L -8.203125 -11.9375 L -6.3125 -14.625 L -5.25 -13.875 L -7.140625 -11.1875 L 2.875 -4.1875 L 2.078125 -3.046875 L -7.9375 -10.046875 Z M -9.828125 -7.34375 "/></g></g></g><g fill="#000000" fill-opacity="1"><g transform="translate(329.195906, 272.332252)"><g><path d="M 6.6875 -12.265625 L -2.765625 -15.015625 L 4.4375 -6.46875 L -6.671875 -7.875 L 0.78125 -1.421875 L 0.09375 -0.171875 L -11.046875 -9.859375 L 1.234375 -8.203125 L -6.796875 -17.640625 L 7.375 -13.5 Z M 6.6875 -12.265625 "/></g></g></g><g fill="#000000" fill-opacity="1"><g transform="translate(339.323635, 252.711263)"><g><path d="M 3.5625 -8.84375 L 0.546875 -1.375 L -12 -6.421875 L -8.984375 -13.890625 L -7.78125 -13.40625 L -10.265625 -7.25 L -5.8125 -5.453125 L -3.40625 -11.421875 L -2.1875 -10.9375 L -4.59375 -4.96875 L -0.125 -3.171875 L 2.359375 -9.328125 Z M 3.5625 -8.84375 "/></g></g></g><g fill="#000000" fill-opacity="1"><g transform="translate(345.541541, 236.394901)"><g><path d="M -4.296875 -8.203125 L 1.828125 -6.46875 L 1.453125 -5.125 L -4.671875 -6.859375 L -12.953125 -3.890625 L -12.46875 -5.59375 L -5.796875 -7.90625 L -10.28125 -13.375 L -9.796875 -15.0625 Z M -4.296875 -8.203125 "/></g></g></g><g fill="#000000" fill-opacity="1"><g transform="translate(350.214872, 218.523405)"><g><path d="M 1.609375 -9.390625 L 0.25 -1.46875 L -13.09375 -3.75 L -11.734375 -11.671875 L -10.453125 -11.453125 L -11.578125 -4.90625 L -6.828125 -4.09375 L -5.75 -10.4375 L -4.453125 -10.21875 L -5.53125 -3.875 L -0.796875 -3.0625 L 0.328125 -9.609375 Z M 1.609375 -9.390625 "/></g></g></g><g fill="#000000" fill-opacity="1"><g transform="translate(352.815594, 201.282929)"><g><path d="M -6.484375 -3.328125 L -6.265625 -6.453125 C -6.222656 -7.234375 -6.445312 -7.894531 -6.9375 -8.4375 C -7.445312 -8.988281 -8.097656 -9.289062 -8.890625 -9.34375 C -9.671875 -9.394531 -10.332031 -9.191406 -10.875 -8.734375 C -11.40625 -8.285156 -11.695312 -7.648438 -11.75 -6.828125 L -11.96875 -3.703125 Z M -8.765625 -10.734375 C -7.578125 -10.648438 -6.617188 -10.171875 -5.890625 -9.296875 C -5.253906 -8.492188 -4.941406 -7.570312 -4.953125 -6.53125 L 0.6875 -10.328125 L 0.5625 -8.453125 L -5.03125 -4.859375 L -5.140625 -3.25 L 0.1875 -2.890625 L 0.09375 -1.484375 L -13.40625 -2.375 L -13.109375 -6.703125 C -13.035156 -7.910156 -12.585938 -8.898438 -11.765625 -9.671875 C -10.921875 -10.453125 -9.921875 -10.804688 -8.765625 -10.734375 Z M -8.765625 -10.734375 "/></g></g></g><g clip-path="url(#7484317d17)"><g clip-path="url(#890b212758)"><path fill="#000000" d="M 264.898438 228.601562 L 273.675781 228.601562 L 273.675781 237.992188 L 264.898438 237.992188 Z M 264.898438 228.601562 " fill-opacity="1" fill-rule="nonzero"/></g></g><g clip-path="url(#e6f9bc2c2c)"><g clip-path="url(#611f87dbb9)"><path fill="#000000" d="M 264.824219 228.300781 L 273.976562 228.300781 L 273.976562 239.164062 L 264.824219 239.164062 Z M 264.824219 228.300781 " fill-opacity="1" fill-rule="nonzero"/></g></g><g clip-path="url(#c146e6ffa8)"><g clip-path="url(#5f63071e89)"><path fill="#000000" d="M 264.675781 228.824219 L 272.925781 228.824219 L 272.925781 239.105469 L 264.675781 239.105469 Z M 264.675781 228.824219 " fill-opacity="1" fill-rule="nonzero"/></g></g><g clip-path="url(#6c3278930a)"><g clip-path="url(#40e65201b8)"><path fill="#000000" d="M 246.976562 247.800781 L 253.730469 247.800781 L 253.730469 254.324219 L 246.976562 254.324219 Z M 246.976562 247.800781 " fill-opacity="1" fill-rule="nonzero"/></g></g><g clip-path="url(#2dce1b0683)"><g clip-path="url(#e32dc3f6d6)"><path fill="#000000" d="M 246.300781 247.273438 L 254.542969 247.273438 L 254.542969 255.300781 L 246.300781 255.300781 Z M 246.300781 247.273438 " fill-opacity="1" fill-rule="nonzero"/></g></g></svg>